<?xml version="1.0" standalone="no"?>
<!DOCTYPE svg PUBLIC "-//W3C//DTD SVG 1.1//EN" "http://www.w3.org/Graphics/SVG/1.1/DTD/svg11.dtd">
<svg t="1619603558317" class="icon" viewBox="0 0 1024 1024" version="1.1" xmlns="http://www.w3.org/2000/svg" p-id="10775" width="128" height="128" xmlns:xlink="http://www.w3.org/1999/xlink"><defs><style type="text/css"></style></defs><path d="M512 294.4c-59.733333 0-110.933333-51.2-110.933333-110.933333 0-59.733333 51.2-110.933333 110.933333-110.933334 59.733333 0 110.933333 51.2 110.933333 110.933334 0 64-46.933333 110.933333-110.933333 110.933333zM277.333333 384C221.866667 384 174.933333 337.066667 174.933333 281.6c0-55.466667 46.933333-102.4 102.4-102.4 55.466667 0 102.4 46.933333 102.4 102.4C379.733333 337.066667 332.8 384 277.333333 384z m-102.4 230.4c-46.933333 0-89.6-42.666667-89.6-89.6 0-51.2 38.4-89.6 89.6-89.6 51.2 0 89.6 38.4 89.6 89.6 0 46.933333-38.4 89.6-89.6 89.6z m102.4 226.133333c-42.666667 0-76.8-34.133333-76.8-76.8s34.133333-76.8 76.8-76.8 76.8 34.133333 76.8 76.8-34.133333 76.8-76.8 76.8z m234.666667 85.333334c-38.4 0-68.266667-29.866667-68.266667-68.266667 0-38.4 29.866667-68.266667 68.266667-68.266667 38.4 0 68.266667 29.866667 68.266667 68.266667 0 38.4-29.866667 68.266667-68.266667 68.266667z m238.933333-110.933334c-29.866667 0-55.466667-25.6-55.466666-55.466666 0-29.866667 25.6-55.466667 55.466666-55.466667 29.866667 0 55.466667 25.6 55.466667 55.466667 0 29.866667-25.6 55.466667-55.466667 55.466666z m98.133334-247.466666c-25.6 0-42.666667-21.333333-42.666667-42.666667 0-25.6 21.333333-42.666667 42.666667-42.666667 25.6 0 42.666667 21.333333 42.666666 42.666667 4.266667 21.333333-17.066667 42.666667-42.666666 42.666667z m-132.266667-281.6c0 17.066667 17.066667 34.133333 34.133333 34.133333s34.133333-17.066667 34.133334-34.133333-17.066667-34.133333-34.133334-34.133334-34.133333 12.8-34.133333 34.133334z m0 0" p-id="10776" fill="#16abea">
</path>
<animate Transform attributeType="xml" attributeName="transform" type="rotate"
        from="0 8.425116062164307 8.459185183048248" to="360 8.425116062164307 8.459185183048248" dur="1.5s"
        additive="sum" repeatCount="indefinite" />
</svg>